<svg xmlns="http://www.w3.org/2000/svg" width="11.966" height="21.082" viewBox="0 0 11.966 21.082">
  <path id="facebook" d="M7.891,21.082H4.515A1.024,1.024,0,0,1,3.492,20.06V12.445H1.523A1.024,1.024,0,0,1,.5,11.422V8.159A1.024,1.024,0,0,1,1.523,7.136h1.97V5.5A5.564,5.564,0,0,1,4.963,1.516,5.3,5.3,0,0,1,8.87,0l2.575,0a1.024,1.024,0,0,1,1.021,1.023v3.03a1.024,1.024,0,0,1-1.022,1.023H9.71c-.529,0-.663.106-.692.138-.047.054-.1.206-.1.627V7.136h2.4a1.039,1.039,0,0,1,.506.129,1.026,1.026,0,0,1,.526.894v3.263a1.024,1.024,0,0,1-1.023,1.022H8.914V20.06A1.024,1.024,0,0,1,7.891,21.082ZM4.728,19.846h2.95V11.891a.684.684,0,0,1,.683-.683h2.748V8.372H8.361a.683.683,0,0,1-.683-.683V5.845A2.1,2.1,0,0,1,8.091,4.4,2.1,2.1,0,0,1,9.71,3.844h1.52V1.24l-2.361,0A3.9,3.9,0,0,0,4.728,5.5V7.689a.684.684,0,0,1-.683.683H1.736v2.836h2.31a.683.683,0,0,1,.683.683ZM11.443,1.24h0Zm0,0" transform="translate(-0.5)" fill="#fff"/>
</svg>
