<svg id="instagram" xmlns="http://www.w3.org/2000/svg" width="21.082" height="21.082" viewBox="0 0 21.082 21.082">
  <g id="Gruppe_4" data-name="Gruppe 4">
    <g id="Gruppe_3" data-name="Gruppe 3">
      <path id="Pfad_4" data-name="Pfad 4" d="M15.386,0H5.7A5.7,5.7,0,0,0,0,5.7v9.69a5.7,5.7,0,0,0,5.7,5.7h9.69a5.7,5.7,0,0,0,5.7-5.7V5.7A5.7,5.7,0,0,0,15.386,0Zm3.993,15.386a4,4,0,0,1-3.993,3.993H5.7A4,4,0,0,1,1.7,15.386V5.7A4,4,0,0,1,5.7,1.7h9.69A4,4,0,0,1,19.379,5.7Z" fill="#fff"/>
    </g>
  </g>
  <g id="Gruppe_6" data-name="Gruppe 6" transform="translate(5.855 5.772)">
    <g id="Gruppe_5" data-name="Gruppe 5">
      <path id="Pfad_5" data-name="Pfad 5" d="M151.589,144.205a4.727,4.727,0,1,0-4.686,5.422,4.791,4.791,0,0,0,.7-.052,4.728,4.728,0,0,0,3.983-5.37Zm-4.233,3.685a3.024,3.024,0,1,1,2.548-3.435A3,3,0,0,1,147.357,147.89Z" transform="translate(-142.185 -140.171)" fill="#fff"/>
    </g>
  </g>
  <g id="Gruppe_8" data-name="Gruppe 8" transform="translate(15.019 4.36)">
    <g id="Gruppe_7" data-name="Gruppe 7">
      <path id="Pfad_6" data-name="Pfad 6" d="M366.195,106.142a.852.852,0,1,0,.249.6A.858.858,0,0,0,366.195,106.142Z" transform="translate(-364.741 -105.893)" fill="#fff"/>
    </g>
  </g>
</svg>
