<svg id="shopping-bag" xmlns="http://www.w3.org/2000/svg" width="17.487" height="23.433" viewBox="0 0 17.487 23.433">
  <path id="Pfad_1" data-name="Pfad 1" d="M21.319,25.861H4.543a.356.356,0,0,1-.355-.372l.8-16.776a.355.355,0,0,1,.355-.338H20.52a.355.355,0,0,1,.355.338l.8,16.776a.356.356,0,0,1-.355.372Zm-16.4-.71H20.946L20.181,9.085H5.68Z" transform="translate(-4.188 -2.428)" fill="#fff"/>
  <path id="Pfad_2" data-name="Pfad 2" d="M18.626,8.077a.355.355,0,0,1-.355-.355V4.193a3.483,3.483,0,1,0-6.966,0V7.722a.355.355,0,1,1-.71,0V4.193a4.193,4.193,0,1,1,8.386,0V7.722A.355.355,0,0,1,18.626,8.077Z" transform="translate(-6.045)" fill="#fff"/>
</svg>
