<svg xmlns="http://www.w3.org/2000/svg" width="26.005" height="21.284" viewBox="0 0 26.005 21.284">
  <path id="twitter" d="M26,2.843c-1.636.075-1.6.069-1.785.085L25.188.161S22.164,1.273,21.4,1.472A6.067,6.067,0,0,0,14.252.9a4.949,4.949,0,0,0-2.379,5.089A13.2,13.2,0,0,1,3.322,1.172L2.6.31l-.536.984a5.949,5.949,0,0,0-.634,4,5.754,5.754,0,0,0,.558,1.563l-.615-.238L1.3,7.653a5.487,5.487,0,0,0,.93,3.261,5.8,5.8,0,0,0,.725.894l-.318-.049.388,1.178a5.728,5.728,0,0,0,2.944,3.412C4.6,16.932,3.491,17.3,1.668,17.9L0,18.452l1.541.842A16.172,16.172,0,0,0,6.255,21.01c4.559.715,9.692.133,13.148-2.98,2.911-2.621,3.866-6.35,3.667-10.231a2.425,2.425,0,0,1,.453-1.578C24.169,5.36,26,2.849,26,2.843Zm-3.7,2.466a3.948,3.948,0,0,0-.755,2.569c.2,3.914-.865,6.95-3.166,9.022C15.7,19.32,11.362,20.27,6.491,19.506a11.8,11.8,0,0,1-2.548-.757,40.407,40.407,0,0,0,4.616-1.9l2.661-1.26L8.281,15.4a4.155,4.155,0,0,1-3.3-1.88A5.27,5.27,0,0,0,6.1,13.338l2.8-.781-2.826-.692a4.209,4.209,0,0,1-2.571-1.788,4.31,4.31,0,0,1-.557-1.229A7.054,7.054,0,0,0,4.1,9.031l2.616.259L4.639,7.673a4.362,4.362,0,0,1-1.653-4.6,15.159,15.159,0,0,0,10.682,4.6,9.022,9.022,0,0,0-.156-1.292,3.5,3.5,0,0,1,1.538-4.188,4.551,4.551,0,0,1,5.369.445,1.363,1.363,0,0,0,1.251.335A10.53,10.53,0,0,0,22.7,2.66l-.657,1.876h.839Zm0,0" transform="translate(0 0)" fill="#fff"/>
</svg>
