<?xml version="1.0" standalone="no"?>
<!DOCTYPE svg PUBLIC "-//W3C//DTD SVG 20010904//EN"
 "http://www.w3.org/TR/2001/REC-SVG-20010904/DTD/svg10.dtd">
<svg version="1.0" xmlns="http://www.w3.org/2000/svg"
 width="2448.000000pt" height="2448.000000pt" viewBox="0 0 2448.000000 2448.000000"
 preserveAspectRatio="xMidYMid meet">
<metadata>
Created by potrace 1.11, written by Peter Selinger 2001-2013
</metadata>
<g transform="translate(0.000000,2448.000000) scale(0.100000,-0.100000)"
fill="#000000" stroke="none">
<path d="M3045 16602 c-3 -3 -22 -7 -43 -8 -20 -1 -57 -4 -82 -8 -25 -3 -63
-9 -85 -12 -46 -6 -80 -12 -115 -19 -14 -3 -38 -8 -55 -11 -16 -3 -50 -10 -75
-15 -25 -6 -52 -12 -60 -14 -8 -1 -35 -9 -60 -16 -25 -7 -52 -14 -60 -15 -35
-7 -236 -77 -247 -86 -7 -6 -13 -8 -13 -5 0 15 -325 -134 -458 -209 -52 -30
-251 -154 -267 -167 -5 -4 -42 -31 -81 -60 -38 -29 -77 -57 -85 -64 -7 -7 -48
-40 -89 -74 -106 -88 -312 -297 -404 -409 -42 -52 -84 -103 -92 -113 -8 -9
-14 -22 -14 -27 0 -6 -4 -10 -8 -10 -9 0 -206 -294 -203 -304 0 -3 -14 -30
-32 -58 -56 -90 -187 -371 -187 -402 0 -9 -4 -16 -10 -16 -5 0 -9 -3 -8 -7 1
-9 0 -11 -27 -88 -9 -27 -18 -57 -20 -65 -1 -8 -8 -28 -14 -45 -7 -16 -14 -37
-16 -45 -2 -8 -13 -49 -25 -90 -11 -41 -23 -91 -26 -110 -2 -19 -9 -48 -14
-65 -5 -16 -12 -48 -15 -70 -4 -22 -8 -51 -11 -65 -29 -166 -39 -298 -38 -540
0 -273 12 -414 49 -600 2 -14 7 -41 10 -60 3 -19 9 -44 12 -55 3 -11 7 -29 9
-40 2 -11 14 -59 27 -107 14 -49 22 -88 19 -88 -3 0 -1 -5 6 -12 7 -7 12 -20
12 -30 0 -10 4 -26 9 -36 6 -9 29 -69 52 -132 71 -195 168 -397 271 -562 37
-61 68 -114 68 -119 0 -5 3 -9 8 -9 4 0 25 -28 47 -62 22 -35 47 -70 55 -79
25 -27 50 -59 50 -64 0 -3 8 -13 18 -23 9 -10 35 -40 57 -67 59 -72 151 -170
229 -244 38 -36 87 -82 108 -102 21 -20 38 -34 38 -31 0 3 8 -4 17 -14 10 -11
34 -31 55 -46 20 -15 42 -34 50 -41 7 -7 29 -24 48 -37 19 -13 37 -27 40 -30
11 -12 210 -141 290 -187 174 -102 477 -236 660 -292 107 -33 214 -60 221 -55
5 3 9 1 9 -4 0 -5 6 -9 13 -10 6 0 23 -3 37 -6 14 -3 50 -10 80 -16 54 -10 66
-12 145 -26 22 -3 56 -8 75 -9 19 -2 54 -6 76 -9 125 -17 442 -24 569 -12 162
15 202 19 220 22 11 3 36 7 55 10 92 14 115 19 240 46 52 11 99 23 105 26 5 3
16 7 25 8 23 2 230 65 270 82 19 8 44 18 55 22 130 50 303 131 430 203 93 52
269 162 295 185 8 7 58 45 110 85 52 39 108 83 124 97 361 312 633 665 834
1080 71 149 155 353 167 410 1 3 12 39 25 80 13 41 24 77 25 80 0 3 7 28 14
56 7 29 14 60 16 70 2 11 4 19 5 19 1 0 3 9 5 20 9 48 27 142 32 165 7 28 7
30 18 120 4 36 9 73 10 82 4 20 18 226 17 251 -1 16 301 17 6211 17 l6212 0
1195 -1195 1195 -1195 -329 -328 c-181 -181 -329 -333 -329 -338 0 -5 12 -16
26 -24 15 -8 90 -54 167 -102 77 -49 145 -88 150 -88 4 0 10 -3 12 -7 3 -9 84
-63 93 -63 3 0 11 -5 18 -10 9 -9 269 -171 372 -233 10 -7 62 -39 115 -72 52
-33 107 -66 123 -74 15 -8 27 -18 27 -23 0 -4 4 -8 9 -8 9 0 74 -39 274 -164
34 -21 74 -46 89 -55 14 -9 59 -36 98 -61 39 -25 79 -50 88 -55 23 -13 275
-170 332 -206 25 -16 50 -33 57 -39 7 -5 15 -10 18 -10 4 0 30 -15 58 -33 29
-19 70 -45 92 -58 22 -13 42 -27 43 -31 2 -4 8 -8 13 -8 8 0 456 -276 519
-319 14 -10 32 -20 40 -24 8 -4 34 -20 58 -35 141 -90 324 -202 332 -202 4 0
10 -4 12 -8 2 -5 36 -28 76 -53 40 -24 92 -56 115 -72 23 -15 54 -33 70 -39
15 -7 27 -16 27 -20 0 -4 7 -8 15 -8 8 0 15 -4 15 -10 0 -5 5 -10 11 -10 6 0
30 -13 54 -30 24 -16 46 -30 50 -30 6 0 -14 42 -24 50 -4 3 -12 16 -19 30 -7
14 -26 45 -42 70 -16 25 -39 61 -50 80 -23 39 -41 69 -53 84 -20 28 -140 223
-145 236 -3 8 -8 17 -12 20 -5 4 -89 137 -115 182 -5 10 -43 71 -84 135 -41
65 -79 127 -85 138 -6 11 -28 46 -49 78 -20 31 -37 61 -37 66 0 5 -3 11 -7 13
-5 2 -35 46 -67 98 -32 52 -76 122 -97 156 -22 33 -39 65 -39 71 0 6 -4 13 -8
15 -10 4 -262 406 -262 418 0 4 -4 10 -8 12 -4 2 -18 21 -31 43 -13 22 -39 63
-58 92 -18 28 -33 54 -33 58 0 3 -5 11 -10 18 -18 22 -80 116 -80 122 0 3 -18
33 -40 66 -22 33 -40 63 -40 67 0 4 -14 25 -30 46 -17 22 -30 46 -30 53 0 7
-4 13 -10 13 -5 0 -10 5 -10 10 0 6 -15 32 -34 58 -18 27 -42 64 -51 83 -10
19 -21 36 -24 39 -4 3 -28 41 -55 85 -26 44 -88 145 -138 225 -50 80 -116 186
-147 235 -31 50 -60 93 -64 96 -5 3 -8 9 -8 13 1 7 1 8 -83 139 -31 48 -56 92
-56 97 0 6 -4 10 -10 10 -5 0 -10 6 -10 14 0 7 -7 20 -16 27 -14 11 -26 2 -96
-69 -44 -45 -83 -83 -87 -83 -3 -1 -55 -54 -116 -119 -60 -65 -113 -118 -117
-119 -3 0 -50 -46 -104 -101 -54 -55 -101 -100 -106 -100 -4 0 -554 547 -1222
1215 l-1215 1215 -6245 0 -6245 0 0 47 c-1 101 -23 304 -45 428 -4 17 -8 44
-11 60 -3 17 -8 41 -11 55 -3 14 -7 36 -10 50 -10 52 -36 148 -61 230 -15 47
-28 88 -29 93 -1 4 -3 9 -4 12 -1 3 -3 8 -4 13 -20 85 -205 501 -241 542 -8 8
-13 17 -12 20 1 5 -11 24 -60 102 -12 21 -23 42 -23 47 0 5 -3 11 -7 13 -5 2
-29 35 -54 73 -105 160 -291 379 -443 524 -96 91 -94 90 -161 146 -33 28 -65
55 -71 60 -30 26 -55 45 -134 100 -47 33 -110 76 -140 95 -30 19 -57 37 -60
40 -3 3 -21 14 -40 25 -19 10 -53 29 -75 42 -41 23 -275 138 -310 153 -11 4
-36 15 -57 24 -70 31 -284 103 -373 125 -49 13 -97 26 -105 29 -8 3 -22 6 -30
7 -8 1 -47 9 -86 18 -39 9 -91 19 -115 22 -24 3 -55 8 -69 11 -14 3 -45 7 -70
9 -25 2 -63 7 -85 11 -50 8 -593 13 -600 6z m570 -166 c22 -3 60 -8 85 -10
116 -14 137 -17 160 -22 14 -4 34 -8 45 -10 11 -1 54 -10 95 -19 41 -9 82 -18
90 -20 8 -2 15 -4 15 -6 0 -1 9 -3 20 -4 49 -7 244 -73 400 -135 108 -43 377
-178 383 -192 2 -5 8 -8 13 -8 19 0 264 -165 355 -240 148 -120 213 -179 325
-295 120 -124 242 -277 344 -430 90 -135 185 -298 185 -317 0 -5 9 -21 20 -36
42 -59 210 -493 225 -587 2 -11 9 -40 15 -65 19 -73 21 -84 24 -110 2 -14 6
-32 9 -40 3 -8 8 -33 11 -55 3 -22 8 -51 10 -65 12 -64 23 -158 31 -268 2 -34
7 -67 10 -72 3 -5 1 -11 -4 -14 -5 -3 -7 -15 -4 -26 5 -20 0 -20 -1578 -20
-871 0 -1593 -3 -1605 -6 -26 -7 -56 -57 -52 -87 2 -12 14 -32 27 -44 l24 -23
1592 0 c875 0 1595 -3 1598 -6 4 -4 4 -11 0 -17 -3 -5 -7 -46 -8 -91 -3 -74
-8 -126 -19 -211 -14 -102 -19 -132 -23 -150 -3 -11 -5 -28 -5 -37 1 -10 -4
-18 -9 -18 -6 0 -8 -4 -4 -10 7 -11 -25 -149 -62 -270 -15 -47 -27 -90 -29
-97 -13 -70 -204 -499 -266 -598 -80 -128 -193 -295 -200 -295 -5 0 -7 -4 -4
-9 4 -5 3 -11 -1 -13 -5 -1 -33 -34 -64 -73 -112 -140 -277 -312 -404 -420
-38 -33 -71 -63 -73 -67 -2 -5 -10 -8 -17 -8 -7 0 -15 -4 -17 -8 -5 -14 -187
-146 -270 -197 -89 -54 -225 -130 -237 -132 -7 -1 -17 -6 -20 -10 -16 -23
-416 -187 -481 -198 -3 0 -10 -3 -15 -7 -6 -3 -27 -9 -48 -13 -20 -4 -40 -11
-43 -16 -3 -5 -9 -7 -13 -5 -4 3 -25 1 -46 -5 -64 -18 -79 -21 -105 -23 -14 0
-27 -4 -30 -8 -5 -7 -105 -25 -180 -34 -19 -2 -46 -6 -60 -9 -14 -3 -54 -7
-90 -10 -36 -3 -85 -8 -110 -10 -53 -7 -334 -7 -405 -1 -168 14 -203 17 -225
21 -14 3 -38 7 -55 9 -16 3 -46 7 -65 11 -19 4 -46 8 -60 10 -14 1 -35 5 -47
9 -12 4 -30 8 -40 10 -10 2 -38 10 -63 17 -25 6 -52 13 -60 15 -30 5 -58 13
-106 29 -27 9 -53 18 -59 19 -28 6 -122 40 -132 49 -7 5 -13 7 -13 3 0 -4 -18
3 -40 14 -21 11 -44 20 -50 20 -23 0 -357 170 -430 219 -14 9 -37 23 -52 31
-16 7 -28 17 -28 22 0 4 -5 8 -12 8 -6 0 -26 11 -44 25 -18 14 -37 25 -42 25
-6 0 -12 3 -14 8 -2 4 -32 29 -68 57 -297 226 -535 480 -736 785 -115 175
-190 315 -277 515 -34 80 -105 282 -113 320 -2 11 -8 31 -13 45 -11 28 -44
165 -60 250 -26 136 -27 140 -36 225 -4 33 -9 74 -11 90 -9 60 -11 472 -4 540
4 39 11 101 15 138 3 37 9 78 11 90 3 12 7 33 8 47 6 46 38 194 58 270 11 41
21 79 22 85 7 40 95 285 108 299 4 6 8 16 8 22 0 7 18 52 40 101 36 78 60 127
127 254 10 19 21 36 26 37 4 2 7 8 7 12 0 13 74 131 97 156 7 7 13 17 13 23 0
5 6 16 13 23 7 7 30 38 52 68 22 30 42 57 45 60 3 3 21 25 40 50 19 25 50 63
70 84 86 96 157 171 179 190 13 12 34 32 45 44 12 13 59 56 106 95 94 80 98
83 155 126 22 17 45 34 50 39 43 35 193 130 318 201 121 69 440 213 501 226 6
1 20 5 31 9 49 19 165 53 205 61 8 2 15 4 15 5 0 2 34 10 131 30 116 24 275
48 364 55 41 3 76 7 78 9 5 6 462 -2 507 -8z m18575 -5198 c0 -4 18 -34 40
-67 22 -33 40 -64 40 -70 0 -5 3 -11 8 -13 10 -4 92 -137 92 -149 0 -5 4 -9 9
-9 5 0 11 -8 14 -17 4 -10 45 -78 92 -152 47 -73 85 -138 85 -142 0 -5 5 -9
10 -9 6 0 10 -4 10 -9 0 -5 77 -132 170 -281 94 -150 170 -276 170 -281 0 -5
4 -9 9 -9 5 0 11 -8 15 -17 3 -10 14 -30 23 -45 59 -92 229 -364 232 -372 2
-6 7 -13 10 -16 3 -3 11 -14 18 -25 25 -42 151 -247 241 -390 52 -82 100 -159
106 -170 6 -11 27 -45 46 -76 19 -30 40 -64 47 -75 19 -32 184 -296 218 -349
57 -90 77 -125 70 -125 -5 0 -89 53 -186 116 -19 13 -38 24 -42 24 -5 0 -13 5
-20 10 -13 11 -141 92 -325 205 -62 39 -123 77 -137 85 -13 8 -57 35 -97 60
-40 24 -75 47 -78 50 -5 6 -184 116 -223 137 -12 7 -29 17 -37 23 -14 10 -45
29 -250 156 -52 32 -96 62 -98 67 -2 4 -8 7 -14 7 -6 0 -30 14 -55 30 -24 17
-48 30 -54 30 -5 0 -9 5 -9 10 0 6 -4 10 -10 10 -5 0 -36 17 -67 37 -32 21
-70 44 -84 53 -76 45 -205 125 -209 130 -3 4 -12 10 -20 13 -8 4 -33 18 -55
32 -22 14 -47 28 -55 32 -8 4 -17 9 -20 13 -4 5 -290 186 -355 223 -11 7 -45
29 -77 50 -31 20 -61 37 -66 37 -4 0 -17 8 -28 18 -11 9 -32 24 -47 32 -15 8
-66 39 -113 69 l-86 53 553 554 c552 552 554 553 571 531 10 -12 18 -25 18
-29z"/>
<path d="M9595 16462 c-44 -7 -77 -26 -98 -56 l-22 -31 -1 -1160 c-1 -814 2
-1169 9 -1190 39 -108 184 -120 243 -21 17 30 18 82 20 1176 0 683 -3 1161 -9
1185 -14 59 -84 108 -142 97z"/>
<path d="M13823 16460 c-18 -4 -43 -14 -56 -23 -55 -36 -53 0 -53 -992 1 -503
-1 -915 -4 -915 -7 1 -60 79 -60 89 0 5 -4 11 -8 13 -4 2 -40 50 -78 108 -135
201 -159 235 -166 238 -5 2 -8 9 -8 16 0 7 -9 21 -20 31 -11 10 -20 24 -20 32
0 7 -4 13 -10 13 -5 0 -10 7 -10 15 0 9 -7 18 -15 21 -8 4 -15 10 -15 14 0 7
-197 304 -222 335 -5 6 -38 55 -75 110 -36 55 -69 102 -72 105 -8 7 -29 41
-38 60 -4 8 -9 17 -12 20 -8 6 -32 42 -111 160 -35 52 -68 97 -72 98 -4 2 -8
8 -8 13 0 9 -36 64 -106 160 -19 26 -34 51 -34 57 0 6 -3 12 -8 14 -4 2 -32
40 -62 85 -56 84 -106 123 -158 123 -25 0 -92 -30 -92 -41 0 -4 -8 -15 -17
-25 -17 -17 -18 -87 -20 -1173 -1 -636 0 -1171 3 -1189 6 -38 52 -88 89 -98
74 -18 157 25 171 90 4 17 7 437 6 934 0 728 3 901 13 890 15 -16 270 -386
300 -436 10 -16 19 -28 43 -56 6 -8 12 -18 12 -21 0 -3 23 -36 50 -75 28 -39
50 -75 50 -80 0 -6 3 -10 8 -10 4 0 20 -21 37 -48 16 -26 80 -120 142 -210 62
-90 113 -166 113 -168 0 -3 5 -10 11 -17 17 -20 139 -198 139 -203 0 -3 6 -12
13 -19 26 -29 37 -44 37 -49 0 -3 31 -49 68 -103 38 -54 110 -160 161 -235 86
-127 127 -171 158 -171 7 0 13 -4 13 -9 0 -5 8 -4 19 1 10 6 21 8 24 5 10 -10
66 26 88 57 l23 32 0 1161 c1 1075 0 1163 -16 1195 -15 30 -55 67 -68 65 -3
-1 -14 2 -25 6 -11 3 -35 4 -52 0z"/>
<path d="M15900 16461 c0 -5 -9 -8 -19 -6 -29 5 -95 -43 -114 -83 -10 -21 -39
-77 -65 -127 -27 -49 -79 -148 -116 -220 -63 -120 -106 -201 -191 -360 -54
-102 -188 -359 -199 -382 -18 -38 -8 -52 -136 192 -88 168 -147 281 -221 420
-103 196 -165 315 -214 410 -51 98 -91 141 -142 151 -45 9 -77 -1 -115 -35
-30 -27 -32 -33 -32 -94 1 -44 7 -75 18 -91 9 -14 16 -32 16 -41 0 -8 4 -15
10 -15 5 0 12 -11 16 -25 3 -14 11 -25 17 -25 6 0 8 -3 4 -6 -3 -3 4 -22 15
-42 12 -21 43 -80 71 -132 99 -189 119 -225 129 -237 6 -7 7 -13 2 -13 -5 0
-4 -4 1 -8 10 -7 50 -80 139 -257 28 -55 54 -102 57 -105 3 -3 41 -72 84 -155
143 -273 140 -266 124 -297 -5 -9 -6 -19 -1 -21 4 -3 6 -38 5 -79 -2 -40 -3
-79 -3 -85 0 -15 0 -127 0 -145 0 -7 1 -52 2 -101 2 -48 -1 -87 -5 -87 -5 0
-5 -5 -1 -12 12 -19 11 -128 -1 -128 -7 0 -7 -3 0 -8 6 -4 10 -51 11 -105 1
-88 3 -100 24 -122 42 -45 69 -53 151 -46 21 1 82 63 86 87 1 11 3 216 3 458
l0 438 27 57 c15 31 31 58 35 59 4 2 8 12 8 22 0 10 3 20 8 22 4 2 27 41 51
88 24 47 56 108 71 135 15 28 51 95 80 150 29 55 69 132 90 170 20 39 63 120
95 180 32 61 70 133 85 160 118 216 150 285 158 337 11 72 -10 117 -65 143
-21 10 -41 20 -45 22 -5 2 -8 0 -8 -6z"/>
<path d="M16468 16462 c-10 -2 -18 -8 -18 -14 0 -6 -3 -8 -7 -5 -12 13 -62
-55 -67 -92 -2 -20 -4 -545 -3 -1168 2 -1130 2 -1132 23 -1160 44 -60 27 -58
676 -57 326 1 604 4 617 8 85 20 117 149 53 217 -15 17 -44 34 -63 38 -19 4
-258 7 -531 6 -325 0 -499 3 -501 10 -2 5 -3 335 -3 733 1 397 -3 722 -7 722
-5 0 -5 5 -1 12 11 17 11 108 1 108 -5 0 -5 5 -1 12 11 17 11 108 1 108 -5 0
-5 5 -1 12 11 17 11 108 1 108 -5 0 -5 5 -1 12 11 17 11 108 0 108 -5 0 -4 6
1 13 5 6 8 30 6 52 -5 74 -5 80 -2 90 9 35 -57 123 -94 126 -7 0 -23 1 -37 2
-14 2 -33 1 -42 -1z"/>
<path d="M7273 16425 c-54 -47 -53 -113 7 -280 47 -132 108 -299 120 -330 17
-44 141 -391 145 -405 2 -8 9 -28 15 -45 38 -96 88 -245 82 -245 -4 0 -2 -4 4
-8 5 -4 20 -36 33 -72 27 -78 60 -170 142 -395 34 -93 62 -174 64 -180 1 -5 6
-21 12 -35 5 -14 29 -79 53 -145 23 -66 49 -134 56 -152 8 -17 14 -36 14 -43
0 -27 56 -112 85 -130 36 -22 95 -26 113 -8 7 7 12 9 12 5 0 -4 13 7 28 25 23
26 62 106 68 138 0 3 5 16 11 30 5 14 27 72 48 130 20 58 52 146 71 195 18 50
41 115 51 145 10 30 20 57 23 60 3 3 6 12 8 20 2 8 32 96 68 195 107 294 112
308 126 350 7 22 17 43 23 47 5 4 7 8 2 8 -4 0 -1 15 7 34 8 19 12 37 8 40 -3
3 0 6 6 6 7 0 11 3 10 8 -2 7 4 25 64 187 17 44 31 87 33 95 2 9 11 34 20 56
9 21 18 44 19 49 2 6 6 17 9 25 34 88 148 415 157 449 18 70 15 125 -11 160
-60 81 -177 60 -227 -41 -12 -24 -47 -115 -78 -203 -54 -155 -98 -279 -114
-320 -4 -11 -22 -60 -40 -110 -47 -134 -81 -228 -87 -245 -3 -8 -7 -19 -9 -25
-2 -5 -24 -66 -49 -135 -26 -69 -53 -147 -62 -175 -8 -27 -18 -54 -23 -60 -8
-12 -24 -66 -22 -77 1 -5 -2 -8 -6 -8 -5 0 -9 -6 -9 -12 -1 -11 -150 -430
-170 -478 -8 -19 -10 -27 -12 -42 -3 -21 -19 15 -52 109 -17 49 -34 97 -39
108 -4 11 -18 49 -30 85 -12 36 -26 74 -30 85 -5 11 -27 74 -50 140 -23 66
-44 127 -47 135 -3 8 -7 20 -9 25 -1 6 -12 34 -22 63 -11 28 -18 52 -15 52 3
0 1 6 -5 13 -8 10 -62 155 -75 202 -2 6 -10 30 -19 55 -35 93 -108 299 -148
415 -23 66 -46 129 -50 140 -5 11 -16 40 -24 65 -8 25 -25 75 -39 112 -14 36
-23 69 -20 72 4 3 1 6 -6 6 -7 0 -10 4 -7 9 8 12 -50 70 -81 82 -44 16 -92 7
-130 -26z"/>
<path d="M10421 16428 c-42 -7 -67 -25 -94 -68 -13 -22 -15 -153 -15 -1157 1
-1247 -3 -1170 61 -1217 27 -20 39 -21 665 -21 350 -1 649 3 663 8 64 20 108
111 83 172 -15 36 -50 70 -84 82 -14 5 -269 9 -567 9 -392 -1 -544 2 -547 10
-2 6 -5 203 -5 438 0 330 2 426 12 427 6 0 161 1 342 1 360 1 387 4 424 57 47
66 24 163 -47 197 -33 16 -74 18 -382 18 l-345 1 0 389 0 390 38 1 c20 0 37
-3 37 -8 0 -6 5 -6 13 0 15 10 97 10 115 0 6 -5 12 -5 12 0 0 10 91 10 108 -1
7 -4 12 -4 12 1 0 4 29 8 65 8 36 0 65 -4 65 -9 0 -5 6 -4 13 1 15 10 97 10
115 0 6 -5 12 -4 12 0 0 5 26 7 58 6 31 -2 63 -3 70 -3 18 0 100 0 115 0 6 0
23 1 37 3 14 2 35 0 46 -4 12 -4 25 -5 29 -1 3 4 34 7 68 7 99 1 146 40 154
127 5 47 -33 110 -76 128 -24 9 -169 13 -630 14 -330 0 -618 -2 -640 -6z"/>
</g>
</svg>
